<svg width="48" height="48" viewBox="0 0 48 48" fill="none" xmlns="http://www.w3.org/2000/svg">
<rect width="48" height="48" rx="10" fill="white"/>
<path d="M12.7923 40.0768C13.0349 39.9566 13.1902 39.7114 13.1902 39.4422C13.1902 39.173 13.0349 38.9278 12.7923 38.8076L7.03826 35.9518C6.81508 35.8413 6.55309 35.8557 6.33962 35.9855C6.12614 36.1153 6 36.3461 6 36.5912L6 42.2883C6 42.5335 6.131 42.7643 6.33962 42.8941C6.55309 43.0239 6.81508 43.0335 7.03826 42.9277L12.7923 40.0768ZM7.4361 37.7403L10.8662 39.4374L7.4361 41.1345L7.4361 37.7403ZM27.0951 39.4374C27.0951 38.4903 26.7167 37.5864 26.0423 36.9182C25.3679 36.2499 24.4509 35.8749 23.5 35.8749C22.5491 35.8749 21.6321 36.2499 20.9577 36.9182C20.2833 37.5864 19.9049 38.4951 19.9049 39.4374C19.9049 40.3797 20.2833 41.2883 20.9577 41.9566C21.6321 42.6249 22.5491 42.9999 23.5 42.9999C24.4509 42.9999 25.3679 42.6249 26.0423 41.9566C26.7167 41.2883 27.0951 40.3845 27.0951 39.4374ZM21.341 39.4374C21.341 38.8701 21.569 38.3268 21.9717 37.923C22.3744 37.5239 22.9275 37.298 23.5 37.298C24.0725 37.298 24.6207 37.5239 25.0283 37.923C25.431 38.322 25.659 38.8701 25.659 39.4374C25.659 40.0047 25.431 40.5479 25.0283 40.9518C24.6256 41.3508 24.0725 41.5768 23.5 41.5768C22.9275 41.5768 22.3793 41.3508 21.9717 40.9518C21.569 40.5528 21.341 40.0047 21.341 39.4374ZM41 42.2883L41 36.5864C41 36.1922 40.6798 35.8749 40.282 35.8749L34.5279 35.8749C34.13 35.8749 33.8098 36.1922 33.8098 36.5864L33.8098 42.2883C33.8098 42.6825 34.13 42.9999 34.5279 42.9999L40.282 42.9999C40.6798 42.9999 41 42.6825 41 42.2883ZM35.2459 41.5768L35.2459 37.298L39.5639 37.298L39.5639 41.5768L35.2459 41.5768ZM36.6869 30.173L24.218 30.173L24.218 34.2115C24.218 34.6057 23.8978 34.923 23.5 34.923C23.1022 34.923 22.782 34.6057 22.782 34.2115L22.782 30.173L10.3131 30.173L10.3131 34.2115C10.3131 34.6057 9.99293 34.923 9.59509 34.923C9.19726 34.923 8.87704 34.6057 8.87704 34.2115L8.87704 29.4615C8.87704 29.0673 9.19725 28.75 9.59509 28.75L22.782 28.75L22.782 24.7115C22.782 24.3173 23.1022 24 23.5 24C23.8978 24 24.218 24.3173 24.218 24.7115L24.218 28.75L37.4049 28.75C37.8027 28.75 38.123 29.0673 38.123 29.4615L38.123 34.2115C38.123 34.6057 37.8027 34.923 37.4049 34.923C37.0071 34.923 36.6869 34.6057 36.6869 34.2115L36.6869 30.173Z" fill="#6278F7"/>
<path d="M23.9898 21.6701C22.2759 21.6701 20.7418 21.2919 19.3792 20.527C18.0252 19.7621 16.9539 18.7136 16.1741 17.3729C15.3942 16.0322 15 14.511 15 12.8179C15 11.1248 15.3942 9.57776 16.1741 8.26282C16.9539 6.94788 18.0166 5.90796 19.3621 5.14306C20.7076 4.37815 22.2501 4 23.9898 4C25.7295 4 27.2378 4.37815 28.6005 5.12587C29.9545 5.87358 31.0172 6.9135 31.7885 8.24563C32.5598 9.57776 32.9454 11.099 32.9454 12.8179C32.9454 14.5367 32.5598 16.0579 31.7885 17.3901C31.0172 18.7222 29.9545 19.7621 28.6005 20.527C27.2464 21.2919 25.7038 21.6701 23.9898 21.6701ZM23.9898 18.9285C25.0954 18.9285 26.0895 18.6792 26.9722 18.1808C27.8549 17.6823 28.5405 16.9689 29.0375 16.0408C29.5346 15.1126 29.7831 14.0469 29.7831 12.8264C29.7831 11.606 29.5346 10.5146 29.0375 9.61214C28.5405 8.70973 27.8463 8.00499 26.9722 7.50652C26.0895 7.00804 25.0954 6.7588 23.9898 6.7588C22.8843 6.7588 21.8988 7.00804 21.0246 7.50652C20.1591 8.00499 19.4649 8.70973 18.9422 9.61214C18.4194 10.5146 18.1623 11.5889 18.1623 12.8264C18.1623 14.064 18.4194 15.1212 18.9422 16.0408C19.4649 16.9689 20.1591 17.6823 21.0246 18.1808C21.8902 18.6792 22.8843 18.9285 23.9898 18.9285Z" fill="#6278F7"/>
</svg>
